# xmcd
#
# Track frame offsets:
#	183
#	12563
#	24090
#	32458
#	49445
#	65613
#	76595
#	89395
#	102155
#	114918
#	123525
#	139843
#	151933
#	163990
#	175573
#	188245
#	198813
#	210723
#	220495
#	228835
#
# Disc length: 3292 seconds
#
# Revision: 3
# Processed by: cddbd v1.4PL0 Copyright (c) Steve Scherf et al.
# Submitted via: MusicWizard 6.0.0
#
DISCID=060cda14
DTITLE=Johnny Cash - Live
DYEAR=1995
DGENRE=Country
TTITLE0=Folsom Prison Blues
TTITLE1=Big River
TTITLE2=Get Rhythm
TTITLE3=Sunday Morning Coming Down
TTITLE4=A Boy Named Sue
TTITLE5=Rock Island Line
TTITLE6=Peace In The Valley
TTITLE7=Long Black Veil
TTITLE8=Ring Of Fire
TTITLE9=I Got Stripes
TTITLE10=City Of New Orleans
TTITLE11=Sixteen Tons
TTITLE12=I Still Miss Someone
TTITLE13=These Hands
TTITLE14=Jackson
TTITLE15=If I Were A Carpenter
TTITLE16=The Highwayman
TTITLE17=Help Me
TTITLE18=The Wall
TTITLE19=Orange Blossom Special
EXTD=(c) 1995 PIckwick Group Ltd UK\nupc 5030073000329
EXTT0=
EXTT1=
EXTT2=
EXTT3=
EXTT4=
EXTT5=
EXTT6=
EXTT7=
EXTT8=
EXTT9=
EXTT10=
EXTT11=
EXTT12=
EXTT13=
EXTT14=
EXTT15=
EXTT16=
EXTT17=
EXTT18=
EXTT19=
PLAYORDER=
